HIERARCHY
ROOT Hips
{
	OFFSET 0.000000 0.000000 0.000000 
	CHANNELS 6 Xposition Yposition Zposition Yrotation Zrotation Xrotation 
	JOINT Lumbar
	{
		OFFSET 0.000000 0.000000 0.000000 
		CHANNELS 3 Zrotation Xrotation Yrotation
		JOINT Neck
		{
			OFFSET 0.000000 0.445665 0.000000 
			CHANNELS 3 Zrotation Xrotation Yrotation
			End Site
			{
				OFFSET 0.000000 0.227535 0.000000 
			}
		}
		JOINT RightShoulder
		{
			OFFSET 0.019635 0.377685 0.194865 
			CHANNELS 3 Zrotation Xrotation Yrotation
			JOINT RightElbow
			{
				OFFSET 0.000000 -0.243375 0.000000 
				CHANNELS 2 Zrotation Yrotation
				JOINT RightWrist
				{
					OFFSET 0.000000 -0.264825 0.000000 
					CHANNELS 2 Zrotation Xrotation
					End Site
					{
						OFFSET 0.006600 -0.176220 0.000990 
					}
				}
			}
		}
		JOINT LeftShoulder
		{
			OFFSET 0.019635 0.377685 -0.194865 
			CHANNELS 3 Zrotation Xrotation Yrotation
			JOINT LeftElbow
			{
				OFFSET 0.000000 -0.243375 0.000000 
				CHANNELS 2 Zrotation Yrotation
				JOINT LeftWrist
				{
					OFFSET 0.000000 -0.264825 0.000000 
					CHANNELS 2 Zrotation Xrotation
					End Site
					{
						OFFSET 0.006600 -0.176220 -0.000990 
					}
				}
			}
		}
	}
	JOINT RightHip
	{
		OFFSET 0.052140 -0.069960 0.075570 
		CHANNELS 3 Zrotation Xrotation Yrotation
		JOINT RightKnee
		{
			OFFSET 0.000000 -0.402270 0.000000 
			CHANNELS 1 Zrotation
			JOINT RightAnkle
			{
				OFFSET 0.000000 -0.404085 0.000000 
				CHANNELS 3 Zrotation Xrotation Yrotation
				End Site
				{
					OFFSET 0.204105 -0.089430 0.008415 
				}
			}
		}
	}
	JOINT LeftHip
	{
		OFFSET 0.052140 -0.069960 -0.075570 
		CHANNELS 3 Zrotation Xrotation Yrotation
		JOINT LeftKnee
		{
			OFFSET 0.000000 -0.402270 0.000000 
			CHANNELS 1 Zrotation
			JOINT LeftAnkle
			{
				OFFSET 0.000000 -0.404085 0.000000 
				CHANNELS 3 Zrotation Xrotation Yrotation
				End Site
				{
					OFFSET 0.204105 -0.089430 -0.008415 
				}
			}
		}
	}
}
MOTION
Frames: 35
Frame Time: 0.02
-0 0.95578 -0 182.60218 0 -4.10386 6.99563 3.63877 -6.28156 -11.85765 8.38243 0.10214 3.10574 -39.80388 38.69513 50.91918 103.30721 7.99015 4.37804 24.15102 1.9 -5.32648 15.04439 -86.23456 -7.35424 5.72746 -5.24577 6.92516 2.5288 -5.195 2.71727 -4.63636 -7.17113 -4.20162 2.38761 -11.97996 -5.92162 6.75366 5.91069 7.72966
0.00043 0.95588 0.00042 182.63349 0 -4.12226 6.98385 3.68633 -6.22952 -12.13857 8.17083 -0.01705 2.347 -40.30466 38.28539 51.7126 102.77239 10.21971 3.46156 24.86793 2.10028 -5.72526 15.53329 -86.24092 -7.57369 6.14308 -5.21996 6.92645 2.49444 -5.19983 2.68068 -4.64609 -7.19481 -4.1494 2.3763 -12.06744 -5.97097 6.73589 5.91972 7.77765
0.00086 0.95598 0.00085 182.66395 0 -4.14064 6.97203 3.73438 -6.17819 -12.42086 7.95903 -0.13704 1.59143 -40.79742 37.87673 52.49915 102.22611 12.4159 2.55151 25.57848 2.30241 -6.11955 16.01746 -86.24651 -7.78985 6.55351 -5.1942 6.92767 2.46106 -5.20471 2.64427 -4.6558 -7.21845 -4.09767 2.36505 -12.15369 -6.01979 6.71828 5.9287 7.82526
0.00128 0.95608 0.00127 182.69251 0 -4.15903 6.96023 3.78377 -6.12868 -12.70826 7.74525 -0.26018 0.84231 -41.26488 37.47299 53.26179 101.62605 14.50031 1.65922 26.27318 2.51145 -6.50565 16.49055 -86.25081 -7.99728 6.94982 -5.16876 6.92887 2.43042 -5.2094 2.60816 -4.66563 -7.24242 -4.04736 2.3541 -12.23702 -6.06699 6.70105 5.93758 7.87193
0.00174 0.95619 0.0017 182.73261 0 -4.17728 6.94872 3.82477 -6.06891 -12.96481 7.54304 -0.36518 0.0604 -41.86861 37.04867 54.14607 101.30749 17.17688 0.67404 27.05495 2.68094 -6.94231 17.02605 -86.26405 -8.25367 7.42405 -5.14208 6.93046 2.38426 -5.21457 2.57038 -4.67497 -7.26496 -3.98948 2.34173 -12.33719 -6.12279 6.68172 5.947 7.92371
0.00212 0.95628 0.00211 182.74725 0 -4.19585 6.93633 3.88434 -6.03131 -13.28894 7.31584 -0.50944 -0.65229 -42.18201 36.66461 54.77557 100.3962 18.5983 -0.11446 27.64968 2.93593 -7.26672 17.42649 -86.25695 -8.40443 7.73086 -5.11772 6.93106 2.37167 -5.21908 2.53621 -4.68522 -7.29026 -3.94773 2.33226 -12.40074 -6.16035 6.6669 5.95528 7.96454
0.0023 0.95629 0.00244 182.69777 0 -4.21561 6.9233 3.99155 -6.05257 -13.79426 7.0169 -0.76163 -1.17864 -41.68571 36.41701 54.66468 97.74446 16.46263 -0.35593 27.7431 3.42576 -7.31801 17.47235 -86.20263 -8.273 7.58507 -5.10217 6.93008 2.4492 -5.21879 2.51083 -4.69943 -7.32613 -3.95054 2.33179 -12.36872 -6.14659 6.66407 5.9604 7.976
0.00241 0.95628 0.00274 182.62128 0 -4.23569 6.90899 4.11835 -6.09667 -14.36958 6.693 -1.05367 -1.63442 -40.89748 36.20573 54.30327 94.51209 13.07284 -0.40026 27.6451 4.00244 -7.2482 17.37836 -86.12566 -8.03355 7.26847 -5.08849 6.92791 2.56133 -5.21837 2.4892 -4.71433 -7.36429 -3.96964 2.33407 -12.29865 -6.11456 6.66587 5.96437 7.97631
0.00255 0.95629 0.00306 182.55321 0 -4.25541 6.89415 4.23865 -6.13185 -14.91677 6.38175 -1.32829 -2.12052 -40.24696 35.96029 54.08019 91.60724 10.3148 -0.53699 27.62476 4.54118 -7.21113 17.33662 -86.05365 -7.83651 7.02328 -5.07239 6.92548 2.65925 -5.21997 2.46668 -4.728 -7.39949 -3.98126 2.33439 -12.24237 -6.09148 6.66587 5.96887 7.98107
0.00268 0.95629 0.00335 182.50187 0 -4.27592 6.8842 4.3486 -6.16083 -15.44743 6.06455 -1.60055 -2.61557 -39.57409 35.78689 53.75355 88.42728 7.3015 -0.65993 27.64338 5.07444 -7.27239 17.34322 -86.00583 -7.66555 6.80367 -5.06298 6.92631 2.75019 -5.21336 2.44103 -4.7455 -7.44269 -3.99319 2.33759 -12.201 -6.06568 6.66462 5.97335 7.98816
0.00282 0.95629 0.00369 182.40869 0 -4.29504 6.86355 4.485 -6.20822 -16.03032 5.75442 -1.88644 -3.07318 -38.87981 35.47522 53.58336 85.69093 4.51517 -0.76711 27.53587 5.63843 -7.09476 17.21512 -85.90017 -7.41727 6.49104 -5.03999 6.9202 2.86464 -5.22375 2.42242 -4.75521 -7.46991 -4.00836 2.33558 -12.11935 -6.04118 6.66701 5.97761 7.98811
0.00301 0.95628 0.00413 182.21138 0 -4.30867 6.81551 4.68755 -6.30008 -16.73149 5.46471 -2.20667 -3.46057 -38.18504 34.74639 53.9029 84.24838 2.72096 -0.85846 27.12396 6.27741 -6.33263 16.75657 -85.65771 -6.95915 5.95658 -4.97984 6.89405 3.02912 -5.28167 2.42539 -4.74322 -7.45115 -4.0283 2.31753 -11.93734 -6.02495 6.679 5.98141 7.96799
0.0032 0.95628 0.00461 181.97198 0 -4.32118 6.75642 4.91635 -6.4097 -17.48508 5.18402 -2.53789 -3.80845 -37.48066 33.88267 54.38801 83.2865 1.18818 -0.94412 26.59307 6.94203 -5.3259 16.16617 -85.35444 -6.43119 5.3359 -4.9058 6.86119 3.21732 -5.35659 2.43475 -4.7234 -7.41652 -4.05098 2.29435 -11.71578 -6.01056 6.69436 5.98507 7.94162
0.0034 0.95628 0.00508 181.74874 0 -4.33524 6.70114 5.13462 -6.51185 -18.21972 4.90249 -2.86007 -4.16569 -36.78966 33.09724 54.80122 82.15174 -0.50362 -1.04653 26.11755 7.5877 -4.40114 15.63108 -85.06781 -5.95018 4.75883 -4.83761 6.83211 3.39878 -5.42332 2.43916 -4.70718 -7.38998 -4.07249 2.27414 -11.5114 -5.99526 6.70772 5.98885 7.92013
0.00357 0.95627 0.00554 181.5372 0 -4.34494 6.65083 5.34802 -6.61279 -18.93378 4.60596 -3.2014 -4.56221 -36.05246 32.23885 55.19652 80.80191 -2.07228 -1.08431 25.62657 8.26796 -3.59485 15.10964 -84.82741 -5.40129 4.15614 -4.77147 6.79978 3.56416 -5.49199 2.45232 -4.69073 -7.35968 -4.09417 2.25123 -11.30926 -5.97987 6.72319 5.99226 7.88972
0.0038 0.95629 0.00602 181.29151 0 -4.36341 6.58769 5.57712 -6.71952 -19.70532 4.34361 -3.5041 -4.86164 -35.41047 31.50308 55.66548 80.02483 -3.81539 -1.25532 25.14616 8.88017 -2.48598 14.53145 -84.47583 -4.97848 3.5898 -4.69768 6.77278 3.76852 -5.5607 2.44875 -4.67299 -7.33355 -4.11606 2.23281 -11.09329 -5.96505 6.73503 5.99656 7.87647
0.00416 0.95639 0.00659 180.96327 0 -4.40657 6.49069 5.84646 -6.84349 -20.59637 4.17 -3.70427 -4.96021 -35.05715 31.11072 56.35235 80.68923 -6.12809 -1.81909 24.69024 9.30552 -0.59739 13.81984 -83.83933 -4.92242 3.1353 -4.60667 6.76107 4.07144 -5.62488 2.39708 -4.65288 -7.32144 -4.13655 2.22708 -10.85156 -5.954 6.73604 6.00215 7.91285
0.00457 0.95653 0.00718 180.60224 0 -4.45851 6.38138 6.12987 -6.97158 -21.54817 4.03153 -3.86377 -4.95153 -34.7972 30.85068 57.09883 81.92072 -8.61373 -2.51383 24.25674 9.65942 1.5846 13.05844 -83.09249 -4.99583 2.72304 -4.50839 6.75515 4.41287 -5.68852 2.32843 -4.63187 -7.31423 -4.15725 2.22621 -10.59719 -5.94312 6.73327 6.00883 7.96661
0.00495 0.95666 0.00775 180.25509 0 -4.50632 6.27845 6.40467 -7.09393 -22.48895 3.87899 -4.03714 -4.95515 -34.48047 30.54945 57.78296 82.91008 -10.99931 -3.13405 23.8356 10.04117 3.63067 12.32596 -82.3907 -5.00968 2.29858 -4.41299 6.74732 4.73912 -5.75284 2.26774 -4.61178 -7.30577 -4.17875 2.22377 -10.34672 -5.93039 6.73221 6.01586 8.01199
0.00533 0.95679 0.00837 179.90972 0 -4.5548 6.17176 6.69019 -7.23302 -23.36103 3.71756 -4.23016 -5.1132 -34.22331 30.16701 58.62072 83.84944 -13.4708 -3.81685 23.31334 10.44455 5.70166 11.56065 -81.70552 -5.0245 1.84136 -4.31864 6.73631 5.05791 -5.81628 2.20616 -4.58936 -7.29298 -4.19689 2.21853 -10.10169 -5.92485 6.73131 6.0195 8.05922
0.00574 0.95691 0.00888 179.55473 0 -4.60381 6.07017 6.95586 -7.33827 -24.3906 3.58435 -4.37272 -4.92215 -33.86503 29.98258 59.15157 85.02214 -15.80314 -4.40107 23.01068 10.78408 7.78044 10.85562 -80.96382 -5.06844 1.46372 -4.22089 6.73326 5.3992 -5.88078 2.1424 -4.57157 -7.29013 -4.22165 2.22023 -9.84401 -5.90481 6.72911 6.03023 8.10674
0.00621 0.95698 0.00908 179.16996 0 -4.65369 5.98555 7.16738 -7.3468 -25.83378 3.50793 -4.38324 -3.8141 -33.2002 30.35101 58.80932 86.69726 -17.74939 -4.67675 23.2921 10.97694 9.86419 10.31338 -80.06334 -5.1663 1.29519 -4.11254 6.75179 5.8089 -5.95193 2.07607 -4.56758 -7.31741 -4.26799 2.24088 -9.54453 -5.84072 6.7244 6.06243 8.15132
0.0067 0.95704 0.00916 178.77897 0 -4.7035 5.90657 7.35756 -7.32161 -27.43382 3.46097 -4.34466 -2.35453 -32.43171 30.90821 58.1565 88.58855 -19.54501 -4.84975 23.79735 11.10543 11.93299 9.83744 -79.1156 -5.28842 1.20603 -4.00162 6.77796 6.2369 -6.02346 2.00825 -4.56818 -7.35392 -4.32037 2.26816 -9.23476 -5.76274 6.71841 6.10135 8.19545
0.00718 0.95711 0.00928 178.39837 0 -4.75234 5.82519 7.55466 -7.31307 -28.96658 3.40868 -4.33043 -1.04277 -31.71317 31.35371 57.6534 90.37721 -21.38198 -5.07239 24.212 11.2555 13.97254 9.34187 -78.20933 -5.39634 1.08093 -3.89392 6.80002 6.64603 -6.0923 1.94156 -4.56618 -7.38367 -4.36775 2.29178 -8.93648 -5.69374 6.71292 6.13577 8.23953
0.00766 0.95718 0.00942 177.98459 0 -4.80578 5.74274 7.76394 -7.29851 -30.48649 3.32363 -4.3068 0.22148 -30.98421 31.91077 57.11989 92.19353 -23.33202 -5.28628 24.5811 11.4362 16.1792 8.79902 -77.21492 -5.522 0.95582 -3.77736 6.82503 7.10087 -6.17157 1.87232 -4.56623 -7.42419 -4.4246 2.31836 -8.60915 -5.61359 6.70779 6.17628 8.28556
0.00815 0.95725 0.00951 177.63897 0 -4.84941 5.66393 7.94265 -7.28915 -32.06722 3.31335 -4.29086 1.66787 -30.25323 32.28155 56.57063 94.00986 -25.01765 -5.49326 25.09707 11.53784 18.02469 8.37248 -76.39412 -5.61496 0.85011 -3.67864 6.84555 7.4646 -6.22943 1.80831 -4.5632 -7.44467 -4.46322 2.3402 -8.33981 -5.55321 6.7015 6.20575 8.32689
0.00866 0.9573 0.00952 177.48268 0 -4.86677 5.59471 8.04182 -7.29596 -33.79726 3.50193 -4.31496 3.51998 -29.52391 32.06597 56.09361 95.64897 -25.93191 -5.69692 25.97189 11.44519 18.92295 8.23911 -76.06717 -5.60966 0.76928 -3.63098 6.85255 7.56979 -6.22596 1.75861 -4.55001 -7.40532 -4.44959 2.3482 -8.23537 -5.5522 6.69378 6.20239 8.3578
0.00919 0.95735 0.00948 177.39544 0 -4.8741 5.52892 8.11114 -7.31015 -35.57871 3.76444 -4.34754 5.54383 -28.79926 31.66066 55.60471 97.29835 -26.59927 -5.89801 26.98521 11.27429 19.44803 8.22289 -75.91685 -5.57033 0.70669 -3.60123 6.85461 7.5829 -6.20121 1.71434 -4.53366 -7.34584 -4.41751 2.35106 -8.18931 -5.57129 6.68471 6.18778 8.3835
0.00971 0.9574 0.00947 177.27703 0 -4.8854 5.46098 8.19405 -7.3254 -37.32383 3.99345 -4.37181 7.49713 -28.08368 31.35837 55.09367 99.025 -27.42976 -6.1061 27.92974 11.1338 20.11209 8.16109 -75.68397 -5.54731 0.64167 -3.56246 6.85837 7.63966 -6.18773 1.66803 -4.51915 -7.29704 -4.39415 2.35567 -8.11506 -5.58028 6.67527 6.17879 8.40985
0.01023 0.95745 0.00944 177.15753 0 -4.89906 5.3955 8.27535 -7.32165 -39.13074 4.22392 -4.41266 9.43515 -27.31654 30.99149 54.68415 100.42434 -28.03914 -6.28711 28.90676 11.01161 20.90527 8.06949 -75.45792 -5.52175 0.55492 -3.52706 6.86465 7.68959 -6.16795 1.62004 -4.50319 -7.24222 -4.36951 2.36286 -8.04735 -5.59293 6.66984 6.16796 8.44326
0.01076 0.95751 0.00944 177.05677 0 -4.90561 5.32588 8.35416 -7.35865 -40.81719 4.46748 -4.42226 11.43613 -26.66017 30.71206 54.06936 102.49154 -29.05358 -6.52393 29.8461 10.83499 21.3408 8.0666 -75.26163 -5.49293 0.51647 -3.48926 6.86449 7.73148 -6.15568 1.5766 -4.4893 -7.19487 -4.34317 2.3635 -7.98014 -5.60284 6.65587 6.1581 8.46095
0.01133 0.9576 0.0095 176.99135 0 -4.89304 5.24216 8.42529 -7.5157 -42.17341 4.73759 -4.33849 13.60992 -26.30059 30.71481 52.84885 106.51015 -31.23103 -6.92649 30.64601 10.51548 20.88134 8.28264 -75.09267 -5.46457 0.60865 -3.4377 6.84693 7.77448 -6.17411 1.54682 -4.48318 -7.17461 -4.3157 2.34614 -7.89946 -5.60098 6.61763 6.15455 8.43475
0.01192 0.95771 0.0096 176.94261 0 -4.87393 5.15453 8.49657 -7.71212 -43.40263 5.01653 -4.22419 15.8313 -26.05395 30.81178 51.43133 111.17608 -33.82396 -7.3834 31.40215 10.14652 20.0747 8.583 -74.94998 -5.43384 0.74802 -3.38368 6.82311 7.81212 -6.19996 1.52109 -4.47903 -7.16229 -4.28724 2.32249 -7.81765 -5.59566 6.57103 6.15216 8.39319
0.0125 0.9578 0.00968 176.88564 0 -4.85916 5.06978 8.57324 -7.88439 -44.67987 5.28578 -4.12741 18.00278 -25.76183 30.86896 50.13319 115.4761 -36.24345 -7.80916 32.17845 9.80811 19.42608 8.84283 -74.80312 -5.40323 0.86434 -3.33257 6.80273 7.85183 -6.21927 1.49181 -4.47307 -7.14518 -4.25984 2.30251 -7.73653 -5.59148 6.52894 6.14863 8.3599
0.01311 0.9579 0.00974 176.83277 0 -4.83859 4.98024 8.62588 -8.0826 -46.00159 5.58183 -4.01549 20.30157 -25.44673 30.90868 48.70918 120.09097 -38.6074 -8.26344 32.95948 9.43242 18.76311 9.11653 -74.6296 -5.37516 0.98838 -3.27438 6.77989 7.89068 -6.25111 1.46952 -4.4707 -7.13208 -4.22937 2.27917 -7.65582 -5.58964 6.48383 6.14732 8.32124
